{
  "asset": {
    "version": "2.0",
    "generator": "THREE.GLTFExporter"
  },
  "scenes": [
    {
      "nodes": [
        14
      ],
      "name": "AuxScene"
    }
  ],
  "scene": 0,
  "nodes": [
    {
      "matrix": [
        0.9996489999454992,
        0.026491632056525508,
        -1.2900823791966662e-9,
        0,
        -0.02344581794347462,
        0.8847166913190402,
        0.46553891660030194,
        0,
        0.012332888709917542,
        -0.46537558339969615,
        0.8850274087465845,
        0,
        182.1912,
        -417.7408,
        1152.459,
        1
      ],
      "name": "skp_camera_Last_Saved_SketchUp_View",
      "camera": 0
    },
    {
      "mesh": 0
    },
    {
      "mesh": 1
    },
    {
      "mesh": 2
    },
    {
      "mesh": 3
    },
    {
      "mesh": 4
    },
    {
      "mesh": 5
    },
    {
      "mesh": 6
    },
    {
      "mesh": 7
    },
    {
      "mesh": 8
    },
    {
      "mesh": 9
    },
    {
      "mesh": 10
    },
    {
      "matrix": [
        0.64,
        0,
        0,
        0,
        0,
        0.64,
        0,
        0,
        0,
        0,
        0.64,
        0,
        -88.41388,
        -76.28106,
        0.2445188,
        1
      ],
      "name": "skp1596",
      "children": [
        1,
        2,
        3,
        4,
        5,
        6,
        7,
        8,
        9,
        10,
        11
      ]
    },
    {
      "name": "SketchUp",
      "children": [
        0,
        12
      ]
    },
    {
      "matrix": [
        0.0254,
        0,
        0,
        0,
        0,
        5.639932965095795e-18,
        -0.0254,
        0,
        0,
        0.0254,
        5.639932965095795e-18,
        0,
        0,
        0,
        0,
        1
      ],
      "name": "null",
      "children": [
        13
      ]
    }
  ],
  "cameras": [
    {
      "type": "orthographic",
      "orthographic": {
        "xmag": 1,
        "ymag": null,
        "zfar": 1000,
        "znear": 1
      },
      "name": "OrthographicCamera"
    }
  ],
  "bufferViews": [
    {
      "buffer": 0,
      "byteOffset": 0,
      "byteLength": 864,
      "target": 34962,
      "byteStride": 12
    },
    {
      "buffer": 0,
      "byteOffset": 864,
      "byteLength": 864,
      "target": 34962,
      "byteStride": 12
    },
    {
      "buffer": 0,
      "byteOffset": 1728,
      "byteLength": 576,
      "target": 34962,
      "byteStride": 8
    },
    {
      "buffer": 0,
      "byteOffset": 2304,
      "byteLength": 72,
      "target": 34963
    },
    {
      "buffer": 0,
      "byteOffset": 2376,
      "byteLength": 72,
      "target": 34963
    },
    {
      "buffer": 0,
      "byteOffset": 2448,
      "byteLength": 864,
      "target": 34962,
      "byteStride": 12
    },
    {
      "buffer": 0,
      "byteOffset": 3312,
      "byteLength": 864,
      "target": 34962,
      "byteStride": 12
    },
    {
      "buffer": 0,
      "byteOffset": 4176,
      "byteLength": 576,
      "target": 34962,
      "byteStride": 8
    },
    {
      "buffer": 0,
      "byteOffset": 4752,
      "byteLength": 72,
      "target": 34963
    },
    {
      "buffer": 0,
      "byteOffset": 4824,
      "byteLength": 72,
      "target": 34963
    },
    {
      "buffer": 0,
      "byteOffset": 4896,
      "byteLength": 864,
      "target": 34962,
      "byteStride": 12
    },
    {
      "buffer": 0,
      "byteOffset": 5760,
      "byteLength": 864,
      "target": 34962,
      "byteStride": 12
    },
    {
      "buffer": 0,
      "byteOffset": 6624,
      "byteLength": 576,
      "target": 34962,
      "byteStride": 8
    },
    {
      "buffer": 0,
      "byteOffset": 7200,
      "byteLength": 72,
      "target": 34963
    },
    {
      "buffer": 0,
      "byteOffset": 7272,
      "byteLength": 72,
      "target": 34963
    },
    {
      "buffer": 0,
      "byteOffset": 7344,
      "byteLength": 6840,
      "target": 34962,
      "byteStride": 12
    },
    {
      "buffer": 0,
      "byteOffset": 14184,
      "byteLength": 6840,
      "target": 34962,
      "byteStride": 12
    },
    {
      "buffer": 0,
      "byteOffset": 21024,
      "byteLength": 4560,
      "target": 34962,
      "byteStride": 8
    },
    {
      "buffer": 0,
      "byteOffset": 25584,
      "byteLength": 1140,
      "target": 34963
    },
    {
      "buffer": 0,
      "byteOffset": 26724,
      "byteLength": 864,
      "target": 34962,
      "byteStride": 12
    },
    {
      "buffer": 0,
      "byteOffset": 27588,
      "byteLength": 864,
      "target": 34962,
      "byteStride": 12
    },
    {
      "buffer": 0,
      "byteOffset": 28452,
      "byteLength": 576,
      "target": 34962,
      "byteStride": 8
    },
    {
      "buffer": 0,
      "byteOffset": 29028,
      "byteLength": 144,
      "target": 34963
    },
    {
      "buffer": 0,
      "byteOffset": 29172,
      "byteLength": 1152,
      "target": 34962,
      "byteStride": 12
    },
    {
      "buffer": 0,
      "byteOffset": 30324,
      "byteLength": 1152,
      "target": 34962,
      "byteStride": 12
    },
    {
      "buffer": 0,
      "byteOffset": 31476,
      "byteLength": 768,
      "target": 34962,
      "byteStride": 8
    },
    {
      "buffer": 0,
      "byteOffset": 32244,
      "byteLength": 192,
      "target": 34963
    },
    {
      "buffer": 0,
      "byteOffset": 32436,
      "byteLength": 3456,
      "target": 34962,
      "byteStride": 12
    },
    {
      "buffer": 0,
      "byteOffset": 35892,
      "byteLength": 3456,
      "target": 34962,
      "byteStride": 12
    },
    {
      "buffer": 0,
      "byteOffset": 39348,
      "byteLength": 2304,
      "target": 34962,
      "byteStride": 8
    },
    {
      "buffer": 0,
      "byteOffset": 41652,
      "byteLength": 576,
      "target": 34963
    },
    {
      "buffer": 0,
      "byteOffset": 42228,
      "byteLength": 3456,
      "target": 34962,
      "byteStride": 12
    },
    {
      "buffer": 0,
      "byteOffset": 45684,
      "byteLength": 3456,
      "target": 34962,
      "byteStride": 12
    },
    {
      "buffer": 0,
      "byteOffset": 49140,
      "byteLength": 2304,
      "target": 34962,
      "byteStride": 8
    },
    {
      "buffer": 0,
      "byteOffset": 51444,
      "byteLength": 576,
      "target": 34963
    },
    {
      "buffer": 0,
      "byteOffset": 52020,
      "byteLength": 864,
      "target": 34962,
      "byteStride": 12
    },
    {
      "buffer": 0,
      "byteOffset": 52884,
      "byteLength": 864,
      "target": 34962,
      "byteStride": 12
    },
    {
      "buffer": 0,
      "byteOffset": 53748,
      "byteLength": 576,
      "target": 34962,
      "byteStride": 8
    },
    {
      "buffer": 0,
      "byteOffset": 54324,
      "byteLength": 72,
      "target": 34963
    },
    {
      "buffer": 0,
      "byteOffset": 54396,
      "byteLength": 72,
      "target": 34963
    },
    {
      "buffer": 0,
      "byteOffset": 54468,
      "byteLength": 144,
      "target": 34962,
      "byteStride": 12
    },
    {
      "buffer": 0,
      "byteOffset": 54612,
      "byteLength": 144,
      "target": 34962,
      "byteStride": 12
    },
    {
      "buffer": 0,
      "byteOffset": 54756,
      "byteLength": 96,
      "target": 34962,
      "byteStride": 8
    },
    {
      "buffer": 0,
      "byteOffset": 54852,
      "byteLength": 24,
      "target": 34963
    },
    {
      "buffer": 0,
      "byteOffset": 54876,
      "byteLength": 1152,
      "target": 34962,
      "byteStride": 12
    },
    {
      "buffer": 0,
      "byteOffset": 56028,
      "byteLength": 1152,
      "target": 34962,
      "byteStride": 12
    },
    {
      "buffer": 0,
      "byteOffset": 57180,
      "byteLength": 768,
      "target": 34962,
      "byteStride": 8
    },
    {
      "buffer": 0,
      "byteOffset": 57948,
      "byteLength": 192,
      "target": 34963
    }
  ],
  "buffers": [
    {
      "byteLength": 58140,
      "uri": "data:application/octet-stream;base64,"
    }
  ],
  "accessors": [
    {
      "bufferView": 0,
      "componentType": 5126,
      "count": 72,
      "max": [
        361.9837951660156,
        198.56680297851562,
        10.429220199584961
      ],
      "min": [
        357.13720703125,
        193.72019958496094,
        0.6792190074920654
      ],
      "type": "VEC3"
    },
    {
      "bufferView": 1,
      "componentType": 5126,
      "count": 72,
      "max": [
        0.9865851998329163,
        0.9865851998329163,
        1
      ],
      "min": [
        -0.9865851998329163,
        -0.9865851998329163,
        -1
      ],
      "type": "VEC3"
    },
    {
      "bufferView": 2,
      "componentType": 5126,
      "count": 72,
      "max": [
        6.033062934875488,
        3.309446096420288
      ],
      "min": [
        -6.033062934875488,
        -0.9649233222007751
      ],
      "type": "VEC2"
    },
    {
      "bufferView": 3,
      "componentType": 5123,
      "count": 36,
      "max": [
        35
      ],
      "min": [
        0
      ],
      "type": "SCALAR"
    },
    {
      "bufferView": 4,
      "componentType": 5123,
      "count": 36,
      "max": [
        71
      ],
      "min": [
        36
      ],
      "type": "SCALAR"
    },
    {
      "bufferView": 5,
      "componentType": 5126,
      "count": 72,
      "max": [
        456.81610107421875,
        198.56680297851562,
        10.429220199584961
      ],
      "min": [
        451.9695129394531,
        193.72019958496094,
        0.6792197227478027
      ],
      "type": "VEC3"
    },
    {
      "bufferView": 6,
      "componentType": 5126,
      "count": 72,
      "max": [
        0.9865851998329163,
        0.9865851998329163,
        1
      ],
      "min": [
        -0.9865851998329163,
        -0.9865851998329163,
        -1
      ],
      "type": "VEC3"
    },
    {
      "bufferView": 7,
      "componentType": 5126,
      "count": 72,
      "max": [
        7.613602161407471,
        3.309446096420288
      ],
      "min": [
        -7.613602161407471,
        -1.2229440212249756
      ],
      "type": "VEC2"
    },
    {
      "bufferView": 8,
      "componentType": 5123,
      "count": 36,
      "max": [
        35
      ],
      "min": [
        0
      ],
      "type": "SCALAR"
    },
    {
      "bufferView": 9,
      "componentType": 5123,
      "count": 36,
      "max": [
        71
      ],
      "min": [
        36
      ],
      "type": "SCALAR"
    },
    {
      "bufferView": 10,
      "componentType": 5126,
      "count": 72,
      "max": [
        361.9837951660156,
        165.60220336914062,
        10.429220199584961
      ],
      "min": [
        357.13720703125,
        160.75559997558594,
        0.6792222857475281
      ],
      "type": "VEC3"
    },
    {
      "bufferView": 11,
      "componentType": 5126,
      "count": 72,
      "max": [
        0.9865851998329163,
        0.9865851998329163,
        1
      ],
      "min": [
        -0.9865851998329163,
        -0.9865851998329163,
        -1
      ],
      "type": "VEC3"
    },
    {
      "bufferView": 12,
      "componentType": 5126,
      "count": 72,
      "max": [
        6.033062934875488,
        2.7600369453430176
      ],
      "min": [
        -6.033062934875488,
        -0.9649232029914856
      ],
      "type": "VEC2"
    },
    {
      "bufferView": 13,
      "componentType": 5123,
      "count": 36,
      "max": [
        35
      ],
      "min": [
        0
      ],
      "type": "SCALAR"
    },
    {
      "bufferView": 14,
      "componentType": 5123,
      "count": 36,
      "max": [
        71
      ],
      "min": [
        36
      ],
      "type": "SCALAR"
    },
    {
      "bufferView": 15,
      "componentType": 5126,
      "count": 570,
      "max": [
        452.894287109375,
        174.48829650878906,
        39.130340576171875
      ],
      "min": [
        361.6014099121094,
        163.0167999267578,
        16.38656997680664
      ],
      "type": "VEC3"
    },
    {
      "bufferView": 16,
      "componentType": 5126,
      "count": 570,
      "max": [
        0.9999734163284302,
        0.9987800717353821,
        0.9677842855453491
      ],
      "min": [
        -0.9999734163284302,
        -0.9987800717353821,
        -0.9677842855453491
      ],
      "type": "VEC3"
    },
    {
      "bufferView": 17,
      "componentType": 5126,
      "count": 570,
      "max": [
        7.726974964141846,
        4.780045986175537
      ],
      "min": [
        -7.528278827667236,
        -3.240463972091675
      ],
      "type": "VEC2"
    },
    {
      "bufferView": 18,
      "componentType": 5123,
      "count": 570,
      "max": [
        569
      ],
      "min": [
        0
      ],
      "type": "SCALAR"
    },
    {
      "bufferView": 19,
      "componentType": 5126,
      "count": 72,
      "max": [
        361.647705078125,
        200.7353973388672,
        26.9891300201416
      ],
      "min": [
        355.3313903808594,
        159.70159912109375,
        10.452730178833008
      ],
      "type": "VEC3"
    },
    {
      "bufferView": 20,
      "componentType": 5126,
      "count": 72,
      "max": [
        0.9999998807907104,
        1,
        1
      ],
      "min": [
        -0.9999998807907104,
        -1,
        -1
      ],
      "type": "VEC3"
    },
    {
      "bufferView": 21,
      "componentType": 5126,
      "count": 72,
      "max": [
        6.030059814453125,
        3.3455679416656494
      ],
      "min": [
        -6.030640125274658,
        0.17120680212974548
      ],
      "type": "VEC2"
    },
    {
      "bufferView": 22,
      "componentType": 5123,
      "count": 72,
      "max": [
        71
      ],
      "min": [
        0
      ],
      "type": "SCALAR"
    },
    {
      "bufferView": 23,
      "componentType": 5126,
      "count": 96,
      "max": [
        459.15789794921875,
        200.62710571289062,
        26.98897933959961
      ],
      "min": [
        452.31060791015625,
        159.5933074951172,
        10.452489852905273
      ],
      "type": "VEC3"
    },
    {
      "bufferView": 24,
      "componentType": 5126,
      "count": 96,
      "max": [
        0.9999998807907104,
        1,
        0.9999998807907104
      ],
      "min": [
        -0.9999998807907104,
        -1,
        -0.9999998807907104
      ],
      "type": "VEC3"
    },
    {
      "bufferView": 25,
      "componentType": 5126,
      "count": 96,
      "max": [
        7.655218124389648,
        3.343808889389038
      ],
      "min": [
        -7.655816078186035,
        -0.130109503865242
      ],
      "type": "VEC2"
    },
    {
      "bufferView": 26,
      "componentType": 5123,
      "count": 96,
      "max": [
        95
      ],
      "min": [
        0
      ],
      "type": "SCALAR"
    },
    {
      "bufferView": 27,
      "componentType": 5126,
      "count": 288,
      "max": [
        407.394287109375,
        201.14779663085938,
        18.35870933532715
      ],
      "min": [
        361.6014099121094,
        168.39950561523438,
        8.901466369628906
      ],
      "type": "VEC3"
    },
    {
      "bufferView": 28,
      "componentType": 5126,
      "count": 288,
      "max": [
        0.9999877214431763,
        0.9995648860931396,
        0.9996412992477417
      ],
      "min": [
        -0.9999877214431763,
        -0.9995648860931396,
        -0.9996412992477417
      ],
      "type": "VEC3"
    },
    {
      "bufferView": 29,
      "componentType": 5126,
      "count": 288,
      "max": [
        7.285027980804443,
        7.248175144195557
      ],
      "min": [
        -6.699314117431641,
        -6.907012939453125
      ],
      "type": "VEC2"
    },
    {
      "bufferView": 30,
      "componentType": 5123,
      "count": 288,
      "max": [
        287
      ],
      "min": [
        0
      ],
      "type": "SCALAR"
    },
    {
      "bufferView": 31,
      "componentType": 5126,
      "count": 288,
      "max": [
        452.894287109375,
        201.14779663085938,
        18.35870933532715
      ],
      "min": [
        407.1014099121094,
        168.39950561523438,
        8.901466369628906
      ],
      "type": "VEC3"
    },
    {
      "bufferView": 32,
      "componentType": 5126,
      "count": 288,
      "max": [
        0.999988317489624,
        0.9995648860931396,
        0.9992778897285461
      ],
      "min": [
        -0.999988317489624,
        -0.9995648860931396,
        -0.9992778897285461
      ],
      "type": "VEC3"
    },
    {
      "bufferView": 33,
      "componentType": 5126,
      "count": 288,
      "max": [
        7.932433128356934,
        7.992660999298096
      ],
      "min": [
        -7.457492828369141,
        -7.662596225738525
      ],
      "type": "VEC2"
    },
    {
      "bufferView": 34,
      "componentType": 5123,
      "count": 288,
      "max": [
        287
      ],
      "min": [
        0
      ],
      "type": "SCALAR"
    },
    {
      "bufferView": 35,
      "componentType": 5126,
      "count": 72,
      "max": [
        456.81610107421875,
        165.60220336914062,
        10.429220199584961
      ],
      "min": [
        451.9695129394531,
        160.75559997558594,
        0.6792222857475281
      ],
      "type": "VEC3"
    },
    {
      "bufferView": 36,
      "componentType": 5126,
      "count": 72,
      "max": [
        0.9865851998329163,
        0.9865851998329163,
        1
      ],
      "min": [
        -0.9865851998329163,
        -0.9865851998329163,
        -1
      ],
      "type": "VEC3"
    },
    {
      "bufferView": 37,
      "componentType": 5126,
      "count": 72,
      "max": [
        7.613602161407471,
        2.7600369453430176
      ],
      "min": [
        -7.613602161407471,
        -1.2229440212249756
      ],
      "type": "VEC2"
    },
    {
      "bufferView": 38,
      "componentType": 5123,
      "count": 36,
      "max": [
        35
      ],
      "min": [
        0
      ],
      "type": "SCALAR"
    },
    {
      "bufferView": 39,
      "componentType": 5123,
      "count": 36,
      "max": [
        71
      ],
      "min": [
        36
      ],
      "type": "SCALAR"
    },
    {
      "bufferView": 40,
      "componentType": 5126,
      "count": 12,
      "max": [
        459.1523132324219,
        200.66859436035156,
        10.577360153198242
      ],
      "min": [
        355.1523132324219,
        159.63400268554688,
        10.577360153198242
      ],
      "type": "VEC3"
    },
    {
      "bufferView": 41,
      "componentType": 5126,
      "count": 12,
      "max": [
        0,
        0,
        1
      ],
      "min": [
        0,
        0,
        -1
      ],
      "type": "VEC3"
    },
    {
      "bufferView": 42,
      "componentType": 5126,
      "count": 12,
      "max": [
        -5.919205188751221,
        3.3444759845733643
      ],
      "min": [
        -7.652537822723389,
        2.660567045211792
      ],
      "type": "VEC2"
    },
    {
      "bufferView": 43,
      "componentType": 5123,
      "count": 12,
      "max": [
        11
      ],
      "min": [
        0
      ],
      "type": "SCALAR"
    },
    {
      "bufferView": 44,
      "componentType": 5126,
      "count": 96,
      "max": [
        452.8468017578125,
        165.24249267578125,
        26.992019653320312
      ],
      "min": [
        361.7903137207031,
        159.6313018798828,
        10.449700355529785
      ],
      "type": "VEC3"
    },
    {
      "bufferView": 45,
      "componentType": 5126,
      "count": 96,
      "max": [
        0.9999998807907104,
        1,
        0.9999995827674866
      ],
      "min": [
        -0.9999998807907104,
        -1,
        -0.9999995827674866
      ],
      "type": "VEC3"
    },
    {
      "bufferView": 46,
      "componentType": 5126,
      "count": 96,
      "max": [
        7.554341793060303,
        6.638501167297363
      ],
      "min": [
        -7.547379016876221,
        0.1735548973083496
      ],
      "type": "VEC2"
    },
    {
      "bufferView": 47,
      "componentType": 5123,
      "count": 96,
      "max": [
        95
      ],
      "min": [
        0
      ],
      "type": "SCALAR"
    }
  ],
  "materials": [
    {
      "pbrMetallicRoughness": {
        "baseColorFactor": [
          0.4,
          0.4,
          0.4,
          1
        ],
        "metallicFactor": 0.5,
        "roughnessFactor": 0.5
      },
      "name": "__auto_"
    },
    {
      "pbrMetallicRoughness": {
        "metallicFactor": 0.5,
        "roughnessFactor": 0.5,
        "baseColorTexture": {
          "index": 0
        }
      },
      "name": "__auto_5"
    }
  ],
  "textures": [
    {
      "sampler": 0,
      "source": 0
    }
  ],
  "samplers": [
    {
      "magFilter": 9729,
      "minFilter": 9987
    }
  ],
  "images": [
    {
      "mimeType": "image/jpeg",
      "uri": "data:image/jpeg;base64,"
    }
  ],
  "meshes": [
    {
      "primitives": [
        {
          "mode": 4,
          "attributes": {
            "POSITION": 0,
            "NORMAL": 1,
            "TEXCOORD_0": 2
          },
          "indices": 3,
          "material": 0
        },
        {
          "mode": 4,
          "attributes": {
            "POSITION": 0,
            "NORMAL": 1,
            "TEXCOORD_0": 2
          },
          "indices": 4,
          "material": 1
        }
      ]
    },
    {
      "primitives": [
        {
          "mode": 4,
          "attributes": {
            "POSITION": 5,
            "NORMAL": 6,
            "TEXCOORD_0": 7
          },
          "indices": 8,
          "material": 0
        },
        {
          "mode": 4,
          "attributes": {
            "POSITION": 5,
            "NORMAL": 6,
            "TEXCOORD_0": 7
          },
          "indices": 9,
          "material": 1
        }
      ]
    },
    {
      "primitives": [
        {
          "mode": 4,
          "attributes": {
            "POSITION": 10,
            "NORMAL": 11,
            "TEXCOORD_0": 12
          },
          "indices": 13,
          "material": 0
        },
        {
          "mode": 4,
          "attributes": {
            "POSITION": 10,
            "NORMAL": 11,
            "TEXCOORD_0": 12
          },
          "indices": 14,
          "material": 1
        }
      ]
    },
    {
      "primitives": [
        {
          "mode": 4,
          "attributes": {
            "POSITION": 15,
            "NORMAL": 16,
            "TEXCOORD_0": 17
          },
          "indices": 18,
          "material": 1
        }
      ]
    },
    {
      "primitives": [
        {
          "mode": 4,
          "attributes": {
            "POSITION": 19,
            "NORMAL": 20,
            "TEXCOORD_0": 21
          },
          "indices": 22,
          "material": 1
        }
      ]
    },
    {
      "primitives": [
        {
          "mode": 4,
          "attributes": {
            "POSITION": 23,
            "NORMAL": 24,
            "TEXCOORD_0": 25
          },
          "indices": 26,
          "material": 1
        }
      ]
    },
    {
      "primitives": [
        {
          "mode": 4,
          "attributes": {
            "POSITION": 27,
            "NORMAL": 28,
            "TEXCOORD_0": 29
          },
          "indices": 30,
          "material": 1
        }
      ]
    },
    {
      "primitives": [
        {
          "mode": 4,
          "attributes": {
            "POSITION": 31,
            "NORMAL": 32,
            "TEXCOORD_0": 33
          },
          "indices": 34,
          "material": 1
        }
      ]
    },
    {
      "primitives": [
        {
          "mode": 4,
          "attributes": {
            "POSITION": 35,
            "NORMAL": 36,
            "TEXCOORD_0": 37
          },
          "indices": 38,
          "material": 0
        },
        {
          "mode": 4,
          "attributes": {
            "POSITION": 35,
            "NORMAL": 36,
            "TEXCOORD_0": 37
          },
          "indices": 39,
          "material": 1
        }
      ]
    },
    {
      "primitives": [
        {
          "mode": 4,
          "attributes": {
            "POSITION": 40,
            "NORMAL": 41,
            "TEXCOORD_0": 42
          },
          "indices": 43,
          "material": 1
        }
      ]
    },
    {
      "primitives": [
        {
          "mode": 4,
          "attributes": {
            "POSITION": 44,
            "NORMAL": 45,
            "TEXCOORD_0": 46
          },
          "indices": 47,
          "material": 1
        }
      ]
    }
  ]
}