{"accessors":[{"bufferView":0,"byteOffset":0,"componentType":5123,"count":1851,"max":[816],"min":[0],"type":"SCALAR"},{"bufferView":1,"byteOffset":0,"componentType":5126,"count":817,"max":[1,1,1],"min":[-1,-1,-1],"type":"VEC3"},{"bufferView":1,"byteOffset":9804,"componentType":5126,"count":817,"max":[16.400726318359375,15.078326225280762,2],"min":[3.673055648803711,3.821579933166504,-7.671507920110744e-18],"type":"VEC3"},{"bufferView":0,"byteOffset":3702,"componentType":5123,"count":72,"max":[43],"min":[0],"type":"SCALAR"},{"bufferView":1,"byteOffset":19608,"componentType":5126,"count":44,"max":[1,1,1],"min":[-1,-1,-1],"type":"VEC3"},{"bufferView":1,"byteOffset":20136,"componentType":5126,"count":44,"max":[8.766926765441895,12.280851364135742,1],"min":[5.4680562019348145,10.301851272583008,0],"type":"VEC3"},{"bufferView":0,"byteOffset":3846,"componentType":5123,"count":108,"max":[63],"min":[0],"type":"SCALAR"},{"bufferView":1,"byteOffset":20664,"componentType":5126,"count":64,"max":[1,1,1],"min":[-1,-1,-1],"type":"VEC3"},{"bufferView":1,"byteOffset":21432,"componentType":5126,"count":64,"max":[12.567927360534668,15.078326225280762,1],"min":[8.766926765441895,13.627395629882812,0],"type":"VEC3"},{"bufferView":0,"byteOffset":4062,"componentType":5123,"count":12,"max":[7],"min":[0],"type":"SCALAR"},{"bufferView":1,"byteOffset":22200,"componentType":5126,"count":8,"max":[1,1,0],"min":[0,0,0],"type":"VEC3"},{"bufferView":1,"byteOffset":22296,"componentType":5126,"count":8,"max":[16.107654571533203,8.901130676269531,1],"min":[14.492652893066406,7.3455810546875,0],"type":"VEC3"},{"bufferView":0,"byteOffset":4086,"componentType":5123,"count":48,"max":[27],"min":[0],"type":"SCALAR"},{"bufferView":1,"byteOffset":22392,"componentType":5126,"count":28,"max":[1,1,1],"min":[-1,-1,-1],"type":"VEC3"},{"bufferView":1,"byteOffset":22728,"componentType":5126,"count":28,"max":[16.107654571533203,8.901130676269531,1],"min":[14.492652893066406,7.3455810546875,0],"type":"VEC3"}],"asset":{"generator":"COLLADA2GLTF","version":"2.0"},"bufferViews":[{"buffer":0,"byteLength":4182,"byteOffset":0,"target":34963},{"buffer":0,"byteLength":23064,"byteOffset":4184,"byteStride":12,"target":34962}],"buffers":[{"name":"output","byteLength":27248,"uri":"data:application/octet-stream;base64,"}],"cameras":[{"name":"skp_camera_Scene_2","perspective":{"yfov":0.6108646988868713,"zfar":25.399999618530273,"znear":0.02539999969303608},"type":"perspective"},{"name":"skp_camera_Scene_1","perspective":{"yfov":0.6108646988868713,"zfar":25.399999618530273,"znear":0.02539999969303608},"type":"perspective"},{"name":"skp_camera_Last_Saved_SketchUp_View","perspective":{"yfov":0.6108646988868713,"zfar":25.399999618530273,"znear":0.02539999969303608},"type":"perspective"}],"materials":[{"name":"ID6","pbrMetallicRoughness":{"baseColorFactor":[1,1,1,1],"metallicFactor":0,"roughnessFactor":1},"emissiveFactor":[0,0,0],"alphaMode":"OPAQUE","doubleSided":false},{"alphaMode":"BLEND","name":"ID15","pbrMetallicRoughness":{"baseColorFactor":[0.19684737920761108,0.2933025658130646,0.4665282964706421,0.25196465849876404],"metallicFactor":0,"roughnessFactor":1},"emissiveFactor":[0,0,0],"doubleSided":false},{"alphaMode":"BLEND","name":"ID15","pbrMetallicRoughness":{"baseColorFactor":[0.19684737920761108,0.2933025658130646,0.4665282964706421,0.25196465849876404],"metallicFactor":0,"roughnessFactor":1},"emissiveFactor":[0,0,0],"doubleSided":false},{"alphaMode":"BLEND","name":"ID15","pbrMetallicRoughness":{"baseColorFactor":[0.19684737920761108,0.2933025658130646,0.4665282964706421,0.25196465849876404],"metallicFactor":0,"roughnessFactor":1},"emissiveFactor":[0,0,0],"doubleSided":false},{"alphaMode":"BLEND","name":"ID15","pbrMetallicRoughness":{"baseColorFactor":[0.19684737920761108,0.2933025658130646,0.4665282964706421,0.25196465849876404],"metallicFactor":0,"roughnessFactor":1},"emissiveFactor":[0,0,0],"doubleSided":false}],"meshes":[{"name":"ID5","primitives":[{"attributes":{"NORMAL":1,"POSITION":2},"indices":0,"material":0,"mode":4}]},{"name":"ID33","primitives":[{"attributes":{"NORMAL":4,"POSITION":5},"indices":3,"material":1,"mode":4}]},{"name":"ID27","primitives":[{"attributes":{"NORMAL":7,"POSITION":8},"indices":6,"material":2,"mode":4}]},{"name":"ID21","primitives":[{"attributes":{"NORMAL":10,"POSITION":11},"indices":9,"material":3,"mode":4}]},{"name":"ID13","primitives":[{"attributes":{"NORMAL":13,"POSITION":14},"indices":12,"material":4,"mode":4}]}],"nodes":[{"children":[1],"matrix":[1,0,0,0,0,0,-1,0,0,1,0,0,0,0,0,1],"name":"Z_UP"},{"children":[8,7,6,5,4,3,2],"mesh":0,"name":"SketchUp"},{"camera":0,"matrix":[0.9830291867256165,0.18344929814338684,0,0,-0.1588924080133438,0.8514388203620911,0.499805212020874,0,0.09168893843889236,-0.4913231134414673,0.8661378026008606,0,10.824725151062012,-4.935423374176025,19.616418838500977,1],"name":"skp_camera_Scene_2"},{"camera":1,"matrix":[0.891553521156311,-0.4529155194759369,-2.7755578924351364e-17,0,0.32604148983955383,0.6418052315711975,0.6941059231758118,0,-0.3143713176250458,-0.618832528591156,0.7198728919029236,0,5.926249027252197,-3.230745315551758,14.039178848266602,1],"name":"skp_camera_Scene_1"},{"camera":2,"matrix":[0.9840795397758484,-0.17772850394248962,-2.7755578924351364e-17,0,0.12477149814367294,0.6908575296401978,0.7121431827545166,0,-0.12656819820404053,-0.7008054852485657,0.7020342350006104,0,6.889079570770264,-11.123916625976562,21.74976921081543,1],"name":"skp_camera_Last_Saved_SketchUp_View"},{"mesh":1},{"mesh":2},{"mesh":3},{"mesh":4}],"scene":0,"scenes":[{"nodes":[0]}]}
