{
    "asset": {
        "generator": "COLLADA2GLTF",
        "version": "2.0"
    },
    "scenes": [
        {
            "nodes": [
                0
            ]
        }
    ],
    "scene": 0,
    "nodes": [
        {
            "children": [
                1
            ],
            "matrix": [
                1.0,
                0.0,
                0.0,
                0.0,
                0.0,
                0.0,
                -1.0,
                0.0,
                0.0,
                1.0,
                0.0,
                0.0,
                0.0,
                0.0,
                0.0,
                1.0
            ],
            "name": "Z_UP"
        },
        {
            "mesh": 0,
            "children": [
                8,
                7,
                6,
                5,
                4,
                3,
                2
            ],
            "name": "SketchUp"
        },
        {
            "matrix": [
                0.9830291867256165,
                0.18344929814338685,
                0.0,
                0.0,
                -0.1588924080133438,
                0.8514388203620911,
                0.499805212020874,
                0.0,
                0.09168893843889237,
                -0.4913231134414673,
                0.8661378026008606,
                0.0,
                10.824725151062012,
                -4.935423374176025,
                19.616418838500978,
                1.0
            ],
            "camera": 0,
            "name": "skp_camera_Scene_2"
        },
        {
            "matrix": [
                0.891553521156311,
                -0.4529155194759369,
                -2.775557892435137e-17,
                0.0,
                0.32604148983955386,
                0.6418052315711975,
                0.6941059231758118,
                0.0,
                -0.3143713176250458,
                -0.618832528591156,
                0.7198728919029236,
                0.0,
                5.926249027252197,
                -3.230745315551758,
                14.039178848266602,
                1.0
            ],
            "camera": 1,
            "name": "skp_camera_Scene_1"
        },
        {
            "matrix": [
                0.891553521156311,
                -0.4529155194759369,
                0.0,
                0.0,
                0.32604148983955386,
                0.6418052315711975,
                0.6941059231758118,
                0.0,
                -0.3143713176250458,
                -0.618832528591156,
                0.7198728919029236,
                0.0,
                -1.8512182235717776,
                -17.946624755859376,
                31.63532066345215,
                1.0
            ],
            "camera": 2,
            "name": "skp_camera_Last_Saved_SketchUp_View"
        },
        {
            "mesh": 1
        },
        {
            "mesh": 2
        },
        {
            "mesh": 3
        },
        {
            "mesh": 4
        }
    ],
    "cameras": [
        {
            "perspective": {
                "yfov": 0.6108646988868713,
                "zfar": 25.399999618530278,
                "znear": 0.02539999969303608
            },
            "type": "perspective",
            "name": "skp_camera_Scene_2"
        },
        {
            "perspective": {
                "yfov": 0.6108646988868713,
                "zfar": 25.399999618530278,
                "znear": 0.02539999969303608
            },
            "type": "perspective",
            "name": "skp_camera_Scene_1"
        },
        {
            "perspective": {
                "yfov": 0.6108646988868713,
                "zfar": 25.399999618530278,
                "znear": 0.02539999969303608
            },
            "type": "perspective",
            "name": "skp_camera_Last_Saved_SketchUp_View"
        }
    ],
    "meshes": [
        {
            "primitives": [
                {
                    "attributes": {
                        "NORMAL": 1,
                        "POSITION": 2
                    },
                    "indices": 0,
                    "mode": 4,
                    "material": 0
                }
            ],
            "name": "ID5"
        },
        {
            "primitives": [
                {
                    "attributes": {
                        "NORMAL": 4,
                        "POSITION": 5
                    },
                    "indices": 3,
                    "mode": 4,
                    "material": 1
                }
            ],
            "name": "ID33"
        },
        {
            "primitives": [
                {
                    "attributes": {
                        "NORMAL": 7,
                        "POSITION": 8
                    },
                    "indices": 6,
                    "mode": 4,
                    "material": 2
                }
            ],
            "name": "ID27"
        },
        {
            "primitives": [
                {
                    "attributes": {
                        "NORMAL": 10,
                        "POSITION": 11
                    },
                    "indices": 9,
                    "mode": 4,
                    "material": 3
                }
            ],
            "name": "ID21"
        },
        {
            "primitives": [
                {
                    "attributes": {
                        "NORMAL": 13,
                        "POSITION": 14
                    },
                    "indices": 12,
                    "mode": 4,
                    "material": 4
                }
            ],
            "name": "ID13"
        }
    ],
    "accessors": [
        {
            "bufferView": 0,
            "byteOffset": 0,
            "componentType": 5123,
            "count": 1548,
            "max": [
                723
            ],
            "min": [
                0
            ],
            "type": "SCALAR"
        },
        {
            "bufferView": 1,
            "byteOffset": 0,
            "componentType": 5126,
            "count": 724,
            "max": [
                1.0,
                1.0,
                1.0
            ],
            "min": [
                -1.0,
                -1.0,
                -1.0
            ],
            "type": "VEC3"
        },
        {
            "bufferView": 1,
            "byteOffset": 8688,
            "componentType": 5126,
            "count": 724,
            "max": [
                16.400726318359376,
                15.078326225280762,
                2.0
            ],
            "min": [
                3.673055648803711,
                3.821579933166504,
                -7.671508747291358e-18
            ],
            "type": "VEC3"
        },
        {
            "bufferView": 0,
            "byteOffset": 3096,
            "componentType": 5123,
            "count": 72,
            "max": [
                43
            ],
            "min": [
                0
            ],
            "type": "SCALAR"
        },
        {
            "bufferView": 1,
            "byteOffset": 17376,
            "componentType": 5126,
            "count": 44,
            "max": [
                1.0,
                1.0,
                1.0
            ],
            "min": [
                -1.0,
                -1.0,
                -1.0
            ],
            "type": "VEC3"
        },
        {
            "bufferView": 1,
            "byteOffset": 17904,
            "componentType": 5126,
            "count": 44,
            "max": [
                8.766926765441895,
                12.280851364135744,
                1.0
            ],
            "min": [
                5.4680562019348148,
                10.301851272583008,
                0.0
            ],
            "type": "VEC3"
        },
        {
            "bufferView": 0,
            "byteOffset": 3240,
            "componentType": 5123,
            "count": 108,
            "max": [
                63
            ],
            "min": [
                0
            ],
            "type": "SCALAR"
        },
        {
            "bufferView": 1,
            "byteOffset": 18432,
            "componentType": 5126,
            "count": 64,
            "max": [
                1.0,
                1.0,
                1.0
            ],
            "min": [
                -1.0,
                -1.0,
                -1.0
            ],
            "type": "VEC3"
        },
        {
            "bufferView": 1,
            "byteOffset": 19200,
            "componentType": 5126,
            "count": 64,
            "max": [
                12.567927360534668,
                15.078326225280762,
                1.0
            ],
            "min": [
                8.766926765441895,
                13.627395629882813,
                0.0
            ],
            "type": "VEC3"
        },
        {
            "bufferView": 0,
            "byteOffset": 3456,
            "componentType": 5123,
            "count": 12,
            "max": [
                7
            ],
            "min": [
                0
            ],
            "type": "SCALAR"
        },
        {
            "bufferView": 1,
            "byteOffset": 19968,
            "componentType": 5126,
            "count": 8,
            "max": [
                1.0,
                1.0,
                0.0
            ],
            "min": [
                0.0,
                0.0,
                0.0
            ],
            "type": "VEC3"
        },
        {
            "bufferView": 1,
            "byteOffset": 20064,
            "componentType": 5126,
            "count": 8,
            "max": [
                16.107654571533204,
                8.901130676269532,
                1.0
            ],
            "min": [
                14.492652893066408,
                7.3455810546875,
                0.0
            ],
            "type": "VEC3"
        },
        {
            "bufferView": 0,
            "byteOffset": 3480,
            "componentType": 5123,
            "count": 48,
            "max": [
                27
            ],
            "min": [
                0
            ],
            "type": "SCALAR"
        },
        {
            "bufferView": 1,
            "byteOffset": 20160,
            "componentType": 5126,
            "count": 28,
            "max": [
                1.0,
                1.0,
                1.0
            ],
            "min": [
                -1.0,
                -1.0,
                -1.0
            ],
            "type": "VEC3"
        },
        {
            "bufferView": 1,
            "byteOffset": 20496,
            "componentType": 5126,
            "count": 28,
            "max": [
                16.107654571533204,
                8.901130676269532,
                1.0
            ],
            "min": [
                14.492652893066408,
                7.3455810546875,
                0.0
            ],
            "type": "VEC3"
        }
    ],
    "materials": [
        {
            "pbrMetallicRoughness": {
                "baseColorFactor": [
                    1.0,
                    1.0,
                    1.0,
                    1.0
                ],
                "metallicFactor": 0.0
            },
            "name": "ID6"
        },
        {
            "pbrMetallicRoughness": {
                "baseColorFactor": [
                    0.3921568989753723,
                    0.584313690662384,
                    0.9294118285179138,
                    0.501960813999176
                ],
                "metallicFactor": 0.0
            },
            "name": "ID15"
        },
        {
            "pbrMetallicRoughness": {
                "baseColorFactor": [
                    0.3921568989753723,
                    0.584313690662384,
                    0.9294118285179138,
                    0.501960813999176
                ],
                "metallicFactor": 0.0
            },
            "name": "ID15"
        },
        {
            "pbrMetallicRoughness": {
                "baseColorFactor": [
                    0.3921568989753723,
                    0.584313690662384,
                    0.9294118285179138,
                    0.501960813999176
                ],
                "metallicFactor": 0.0
            },
            "name": "ID15"
        },
        {
            "pbrMetallicRoughness": {
                "baseColorFactor": [
                    0.3921568989753723,
                    0.584313690662384,
                    0.9294118285179138,
                    0.501960813999176
                ],
                "metallicFactor": 0.0
            },
            "name": "ID15"
        }
    ],
    "bufferViews": [
        {
            "buffer": 0,
            "byteOffset": 20832,
            "byteLength": 3576,
            "target": 34963
        },
        {
            "buffer": 0,
            "byteOffset": 0,
            "byteLength": 20832,
            "byteStride": 12,
            "target": 34962
        }
    ],
    "buffers": [
        {
            "byteLength": 24408,
            "uri": "data:application/octet-stream;base64,"
        }
    ]
}
