{"accessors":{"accessor_21":{"bufferView":"bufferView_1","byteOffset":0,"byteStride":0,"componentType":5123,"count":36,"max":[17],"min":[0],"type":"SCALAR"},"accessor_23":{"bufferView":"bufferView_0","byteOffset":0,"byteStride":0,"componentType":5123,"count":36,"max":[65535,65535,65535],"min":[0,0,0],"type":"VEC3","extensions":{"WEB3D_quantized_attributes":{"decodedMin":[-0.03661339730024338,0,-0.0018013007938861847],"decodedMax":[0.07711699604988098,0.07058919966220856,0.0685838907957077],"decodeMatrix":[0.0000017354145624494446,0,0,0,0,0.000001077122143315916,0,0,0,0,0.000001074009179668786,0,-0.03661339730024338,0,-0.0018013007938861847,1]}}},"accessor_25":{"bufferView":"bufferView_0","byteOffset":216,"byteStride":0,"componentType":5121,"count":36,"max":[255,255],"min":[0,0],"type":"VEC2"}},"animations":{},"asset":{"generator":"collada2gltf@ec3ff192cc7dd54ad5f27c08bf14e37805754a10","premultipliedAlpha":true,"profile":{"api":"WebGL","version":"1.0.2"},"version":"1.0.1"},"bufferViews":{"bufferView_0":{"buffer":"input","byteLength":288,"byteOffset":0,"target":34962},"bufferView_1":{"buffer":"input","byteLength":72,"byteOffset":288,"target":34963}},"buffers":{"input":{"type":"arraybuffer","byteLength":360,"uri":"data:application/octet-stream;base64,"}},"materials":{"lambert1-fx":{"name":"lambert1","technique":"technique0","values":{"ambient":[0,0,0,1],"diffuse":[0.4000000059604645,0.4000000059604645,0.4000000059604645,1],"emission":[0,0,0,1],"transparency":0}}},"meshes":{"pCube1-lib":{"name":"pCube1Mesh","primitives":[{"attributes":{"NORMAL":"accessor_25","POSITION":"accessor_23"},"indices":"accessor_21","material":"lambert1-fx","mode":4}]}},"nodes":{"rootNode":{"children":[],"meshes":["pCube1-lib"],"matrix":[1,0,0,0,0,1,0,0,0,0,1,0,0,0,0,1]}},"programs":{"program_0":{"attributes":["a_normal","a_position"],"fragmentShader":"input0FS","vertexShader":"input0VS"}},"scene":"defaultScene","scenes":{"defaultScene":{"nodes":["rootNode"]}},"shaders":{"input0FS":{"type":35632,"uri":"data:text/plain;base64,"},"input0VS":{"type":35633,"uri":"data:text/plain;base64,"}},"skins":{},"techniques":{"technique0":{"attributes":{"a_normal":"normal","a_position":"position"},"parameters":{"ambient":{"type":35666},"diffuse":{"semantic":"_3DTILESDIFFUSE","type":35666},"emission":{"type":35666},"modelViewMatrix":{"semantic":"MODELVIEW","type":35676},"normal":{"semantic":"NORMAL","type":35667},"normalMatrix":{"semantic":"MODELVIEWINVERSETRANSPOSE","type":35675},"position":{"semantic":"POSITION","type":35665},"projectionMatrix":{"semantic":"PROJECTION","type":35676},"transparency":{"type":5126}},"program":"program_0","states":{"enable":[2929,3042],"functions":{"blendEquationSeparate":[32774,32774],"blendFuncSeparate":[1,771,1,771],"depthMask":[false],"enable":[]}},"uniforms":{"u_ambient":"ambient","u_diffuse":"diffuse","u_emission":"emission","u_modelViewMatrix":"modelViewMatrix","u_normalMatrix":"normalMatrix","u_projectionMatrix":"projectionMatrix","u_transparency":"transparency"}}},"cameras":{},"images":{},"samplers":{},"textures":{},"extensionsUsed":["WEB3D_quantized_attributes"]}
